<svg width="71" height="13" viewBox="0 0 71 13" fill="none" xmlns="http://www.w3.org/2000/svg">
<path d="M5.30449 9.69092C5.30449 9.80811 5.2791 9.89014 5.22832 9.93701C5.18145 9.97998 5.09942 10.0015 4.98223 10.0015H3.73418C3.61699 10.0015 3.53301 9.97998 3.48223 9.93701C3.43535 9.89014 3.41192 9.80811 3.41192 9.69092L3.41192 3.14014H1.66582C1.57207 3.14014 1.50176 3.12451 1.45488 3.09326C1.35332 3.02295 1.24785 2.93897 1.13848 2.84131C1.03301 2.74365 0.917775 2.62647 0.792775 2.48975C0.753712 2.43897 0.734181 2.39795 0.734181 2.3667C0.734181 2.33154 0.753712 2.29248 0.792775 2.24951C0.917775 2.11279 1.03301 1.99561 1.13848 1.89795C1.24785 1.80029 1.35332 1.71631 1.45488 1.646C1.50957 1.61475 1.57988 1.59912 1.66582 1.59912L7.05645 1.59912C7.1502 1.59912 7.22051 1.61475 7.26738 1.646C7.36895 1.71631 7.47442 1.80029 7.58379 1.89795C7.69317 1.99561 7.8084 2.11279 7.92949 2.24951C7.96856 2.30029 7.98809 2.34131 7.98809 2.37256C7.98809 2.40772 7.96856 2.44678 7.92949 2.48975C7.8084 2.62647 7.69317 2.74365 7.58379 2.84131C7.47442 2.93897 7.36895 3.02295 7.26738 3.09326C7.2127 3.12451 7.14238 3.14014 7.05645 3.14014L5.30449 3.14014L5.30449 9.69092ZM10.4985 10.148C9.83832 10.148 9.2641 10.0425 8.77582 9.83154C8.28754 9.6167 7.90864 9.28467 7.6391 8.83545C7.36957 8.38623 7.23481 7.80615 7.23481 7.09522C7.23481 6.02881 7.50824 5.22217 8.05512 4.67529C8.60199 4.12842 9.32856 3.85498 10.2348 3.85498C10.8247 3.85498 11.3227 3.96045 11.7289 4.17139C12.1391 4.38233 12.4497 4.67334 12.6606 5.04443C12.8754 5.41553 12.9829 5.83936 12.9829 6.31592C12.9829 6.78076 12.8637 7.10498 12.6254 7.28858C12.3872 7.47217 12.0395 7.56397 11.5825 7.56397H9.06879C9.10004 7.96631 9.24653 8.27295 9.50824 8.48389C9.77387 8.69483 10.1332 8.80029 10.5864 8.80029C10.9457 8.80029 11.2329 8.74756 11.4477 8.64209C11.6664 8.53272 11.8188 8.44678 11.9047 8.38428C11.9789 8.32959 12.0629 8.3042 12.1567 8.30811C12.2309 8.30811 12.3364 8.32373 12.4731 8.35498C12.6137 8.38233 12.7524 8.43506 12.8891 8.51319C12.9868 8.56397 13.0356 8.63428 13.0356 8.72412C13.0356 8.7749 13.0258 8.84717 13.0063 8.94092C12.9946 8.99561 12.975 9.07569 12.9477 9.18115C12.9204 9.28272 12.8852 9.37842 12.8422 9.46826C12.8188 9.51123 12.7817 9.55225 12.7309 9.59131C12.6528 9.646 12.5258 9.71826 12.35 9.80811C12.1782 9.89795 11.9418 9.97608 11.6411 10.0425C11.3403 10.1128 10.9594 10.148 10.4985 10.148ZM9.05707 6.36279H10.9672C11.1664 6.36279 11.2661 6.271 11.2661 6.0874C11.2661 5.81006 11.1782 5.57764 11.0024 5.39014C10.8305 5.19873 10.5707 5.10303 10.2231 5.10303C9.84418 5.10303 9.56489 5.22412 9.3852 5.46631C9.20942 5.7085 9.10004 6.00733 9.05707 6.36279ZM16.8995 9.69092C16.8995 9.80811 16.8741 9.89014 16.8233 9.93701C16.7764 9.97998 16.6944 10.0015 16.5772 10.0015H15.3702C15.253 10.0015 15.169 9.97998 15.1182 9.93701C15.0714 9.89014 15.0479 9.80811 15.0479 9.69092L15.0479 5.3667H14.3565C14.2393 5.3667 14.1573 5.34326 14.1104 5.29639C14.0675 5.24561 14.046 5.16162 14.046 5.04443V4.32373C14.046 4.20654 14.0675 4.12451 14.1104 4.07764C14.1573 4.02686 14.2393 4.00147 14.3565 4.00147H15.0479V3.25733C15.0479 2.78467 15.1417 2.37842 15.3292 2.03857C15.5206 1.69873 15.7764 1.43701 16.0968 1.25342C16.421 1.06982 16.7804 0.978028 17.1749 0.978028C17.3585 0.978028 17.4972 0.98584 17.5909 1.00147C17.6886 1.01709 17.7608 1.04053 17.8077 1.07178C17.96 1.15772 18.171 1.3335 18.4405 1.59912C18.4835 1.646 18.505 1.69287 18.505 1.73975C18.505 1.79053 18.4718 1.84912 18.4054 1.91553C18.2882 2.03662 18.1768 2.14014 18.0714 2.22607C17.9659 2.30811 17.88 2.37061 17.8136 2.41357C17.755 2.44873 17.7022 2.47022 17.6554 2.47803C17.6124 2.48193 17.5518 2.48389 17.4737 2.48389C17.0909 2.48389 16.8995 2.77686 16.8995 3.36279V4.00147H17.96C18.0772 4.00147 18.1573 4.02686 18.2003 4.07764C18.2472 4.12451 18.2706 4.20654 18.2706 4.32373V5.04443C18.2706 5.16162 18.2472 5.24561 18.2003 5.29639C18.1573 5.34326 18.0772 5.3667 17.96 5.3667H16.8995L16.8995 9.69092ZM21.0681 10.148C20.4939 10.148 20.0368 9.98779 19.697 9.66748C19.3611 9.34326 19.1931 8.89795 19.1931 8.33154C19.1931 8.03858 19.2458 7.76709 19.3513 7.51709C19.4607 7.26318 19.6482 7.04053 19.9138 6.84912C20.1833 6.65381 20.5583 6.49756 21.0388 6.38037C21.5232 6.26318 22.1404 6.19483 22.8904 6.17529C22.8904 5.81983 22.8005 5.56397 22.6208 5.40772C22.445 5.25147 22.1794 5.17334 21.8239 5.17334C21.5036 5.17334 21.2419 5.22803 21.0388 5.3374C20.8357 5.44678 20.7087 5.521 20.6579 5.56006C20.6032 5.60693 20.5368 5.62451 20.4587 5.61279C20.3532 5.59717 20.24 5.56983 20.1189 5.53076C20.0017 5.4917 19.8747 5.44678 19.738 5.396C19.7185 5.38818 19.697 5.37647 19.6736 5.36084C19.6501 5.34131 19.6364 5.31397 19.6325 5.27881C19.6325 5.25928 19.6345 5.23584 19.6384 5.2085C19.6423 5.17725 19.6521 5.12256 19.6677 5.04443C19.6833 4.96631 19.7068 4.87061 19.738 4.75733C19.7693 4.64014 19.7986 4.55029 19.8259 4.48779C19.8611 4.42139 19.9197 4.35889 20.0017 4.30029C20.0681 4.24561 20.2693 4.15772 20.6052 4.03662C20.9411 3.91553 21.4275 3.85498 22.0642 3.85498C23.8181 3.85498 24.695 4.7085 24.695 6.41553L24.695 9.73194C24.695 9.80615 24.6736 9.87061 24.6306 9.92529C24.5915 9.97608 24.5232 10.0015 24.4255 10.0015H23.5466C23.4841 10.0015 23.4275 9.99365 23.3767 9.97803C23.3298 9.9585 23.2849 9.92334 23.2419 9.87256L22.8786 9.40381H22.8376C22.6579 9.66553 22.4157 9.85498 22.1111 9.97217C21.8103 10.0894 21.4626 10.148 21.0681 10.148ZM21.7126 8.78858C22.072 8.78858 22.3435 8.69678 22.5271 8.51319C22.7107 8.32959 22.8279 8.14014 22.8786 7.94483V7.29443C22.3357 7.29443 21.9275 7.3374 21.654 7.42334C21.3845 7.50537 21.2048 7.61475 21.115 7.75147C21.0251 7.88428 20.9802 8.02881 20.9802 8.18506C20.9802 8.41162 21.0505 8.56983 21.1911 8.65967C21.3318 8.74561 21.5056 8.78858 21.7126 8.78858Z" fill="black"/>
<path d="M30.3109 8.56592C30.5961 8.56592 30.8187 8.53662 30.9789 8.47803C31.1429 8.41944 31.2699 8.34717 31.3597 8.26123C31.4496 8.17529 31.5277 8.08936 31.5941 8.00342C31.6566 7.92529 31.7074 7.8667 31.7465 7.82764C31.7894 7.78858 31.848 7.76123 31.9222 7.74561C31.9847 7.72608 32.0843 7.71436 32.2211 7.71045C32.3617 7.70264 32.5004 7.69873 32.6371 7.69873C32.7777 7.69873 32.8754 7.70264 32.93 7.71045C33.0121 7.71436 33.0687 7.72998 33.1 7.75733C33.1312 7.78467 33.1507 7.84326 33.1586 7.93311C33.1703 8.05811 33.1761 8.20654 33.1761 8.37842C33.18 8.55029 33.1781 8.69873 33.1703 8.82373C33.1664 8.86279 33.1586 8.896 33.1468 8.92334C33.139 8.95069 33.1195 8.9917 33.0882 9.04639C33.0492 9.10889 32.973 9.20069 32.8597 9.32178C32.7465 9.43897 32.5804 9.56201 32.3617 9.69092C32.1429 9.81592 31.8597 9.92334 31.5121 10.0132C31.1683 10.103 30.7445 10.148 30.2406 10.148C29.7015 10.148 29.1976 10.0796 28.7289 9.94287C28.2601 9.80225 27.848 9.56787 27.4925 9.23975C27.141 8.91162 26.8656 8.46826 26.6664 7.90967C26.4711 7.35108 26.3734 6.65381 26.3734 5.81787C26.3734 4.88818 26.5336 4.09912 26.8539 3.45068C27.1781 2.79834 27.6371 2.30225 28.2308 1.9624C28.8246 1.62256 29.5277 1.45264 30.3402 1.45264C30.9105 1.45264 31.3675 1.51123 31.7113 1.62842C32.059 1.74561 32.3226 1.88428 32.5023 2.04443C32.682 2.20068 32.809 2.3374 32.8832 2.45459C32.9105 2.49756 32.93 2.53662 32.9418 2.57178C32.9535 2.60303 32.9613 2.65381 32.9652 2.72412C32.9769 2.81787 32.9789 2.95459 32.9711 3.13428C32.9672 3.31397 32.9535 3.47217 32.93 3.60889C32.9144 3.69483 32.889 3.75147 32.8539 3.77881C32.8382 3.79443 32.8109 3.80811 32.7718 3.81983C32.7328 3.83154 32.6742 3.8374 32.5961 3.8374C32.4711 3.8374 32.3304 3.8335 32.1742 3.82568C32.0179 3.81397 31.9007 3.80225 31.8226 3.79053C31.7289 3.7749 31.6605 3.75342 31.6175 3.72608C31.5746 3.69483 31.5316 3.64795 31.4886 3.58545C31.4183 3.48389 31.2972 3.3667 31.1254 3.23389C30.9535 3.10108 30.6703 3.03467 30.2757 3.03467C29.7211 3.03467 29.264 3.24951 28.9047 3.6792C28.5453 4.10498 28.3656 4.79639 28.3656 5.75342C28.3656 6.70654 28.5531 7.41358 28.9281 7.87451C29.307 8.33545 29.7679 8.56592 30.3109 8.56592ZM36.2373 10.148C35.6631 10.148 35.2061 9.98779 34.8662 9.66748C34.5303 9.34326 34.3623 8.89795 34.3623 8.33154C34.3623 8.03858 34.415 7.76709 34.5205 7.51709C34.6299 7.26318 34.8174 7.04053 35.083 6.84912C35.3525 6.65381 35.7275 6.49756 36.208 6.38037C36.6924 6.26318 37.3096 6.19483 38.0596 6.17529C38.0596 5.81983 37.9697 5.56397 37.79 5.40772C37.6143 5.25147 37.3486 5.17334 36.9932 5.17334C36.6729 5.17334 36.4111 5.22803 36.208 5.3374C36.0049 5.44678 35.8779 5.521 35.8272 5.56006C35.7725 5.60693 35.7061 5.62451 35.6279 5.61279C35.5225 5.59717 35.4092 5.56983 35.2881 5.53076C35.1709 5.4917 35.0439 5.44678 34.9072 5.396C34.8877 5.38818 34.8662 5.37647 34.8428 5.36084C34.8193 5.34131 34.8057 5.31397 34.8018 5.27881C34.8018 5.25928 34.8037 5.23584 34.8076 5.2085C34.8115 5.17725 34.8213 5.12256 34.8369 5.04443C34.8525 4.96631 34.876 4.87061 34.9072 4.75733C34.9385 4.64014 34.9678 4.55029 34.9951 4.48779C35.0303 4.42139 35.0889 4.35889 35.1709 4.30029C35.2373 4.24561 35.4385 4.15772 35.7744 4.03662C36.1104 3.91553 36.5967 3.85498 37.2334 3.85498C38.9873 3.85498 39.8643 4.7085 39.8643 6.41553V9.73194C39.8643 9.80615 39.8428 9.87061 39.7998 9.92529C39.7607 9.97608 39.6924 10.0015 39.5947 10.0015H38.7158C38.6533 10.0015 38.5967 9.99365 38.5459 9.97803C38.499 9.9585 38.4541 9.92334 38.4111 9.87256L38.0479 9.40381H38.0068C37.8272 9.66553 37.585 9.85498 37.2803 9.97217C36.9795 10.0894 36.6318 10.148 36.2373 10.148ZM36.8818 8.78858C37.2412 8.78858 37.5127 8.69678 37.6963 8.51319C37.8799 8.32959 37.9971 8.14014 38.0479 7.94483V7.29443C37.5049 7.29443 37.0967 7.3374 36.8232 7.42334C36.5537 7.50537 36.374 7.61475 36.2842 7.75147C36.1943 7.88428 36.1494 8.02881 36.1494 8.18506C36.1494 8.41162 36.2197 8.56983 36.3604 8.65967C36.501 8.74561 36.6748 8.78858 36.8818 8.78858ZM43.4762 10.148C43.0582 10.148 42.7106 10.1128 42.4332 10.0425C42.1598 9.97217 41.9391 9.88819 41.7711 9.79053C41.6071 9.68897 41.4782 9.59717 41.3844 9.51514C41.3141 9.44873 41.3063 9.37451 41.361 9.29248L41.9586 8.40772C42.0446 8.28272 42.1422 8.2749 42.2516 8.38428C42.3649 8.49365 42.5172 8.60108 42.7086 8.70654C42.904 8.80811 43.1461 8.85889 43.4352 8.85889C43.693 8.85889 43.904 8.81592 44.068 8.72998C44.236 8.64014 44.32 8.51123 44.32 8.34326C44.32 8.22608 44.2829 8.13037 44.2086 8.05615C44.1344 7.98194 44.0036 7.90576 43.8161 7.82764C43.6286 7.74951 43.3668 7.6499 43.0309 7.52881C42.5348 7.34912 42.1598 7.13233 41.9059 6.87842C41.652 6.62451 41.525 6.25342 41.525 5.76514C41.525 5.31592 41.6481 4.95068 41.8942 4.66943C42.1442 4.38818 42.4625 4.18311 42.8493 4.0542C43.2399 3.92139 43.6461 3.85498 44.068 3.85498C44.6032 3.85498 44.9782 3.90576 45.193 4.00733C45.4118 4.10498 45.5524 4.18115 45.6149 4.23584C45.6735 4.28662 45.7145 4.34522 45.7379 4.41162C45.7887 4.56397 45.8278 4.76514 45.8551 5.01514C45.8707 5.15967 45.8336 5.25537 45.7438 5.30225C45.6969 5.32959 45.6227 5.35889 45.5211 5.39014C45.4196 5.42139 45.318 5.44873 45.2165 5.47217C45.1149 5.49561 45.0387 5.50733 44.9879 5.50733C44.9723 5.50733 44.9547 5.50342 44.9352 5.49561C44.9196 5.48389 44.8903 5.4585 44.8473 5.41943C44.7965 5.36865 44.7086 5.31006 44.5836 5.24365C44.4625 5.17725 44.2946 5.14404 44.0797 5.14404C43.8688 5.14404 43.6911 5.1792 43.5465 5.24951C43.4059 5.31592 43.3356 5.43506 43.3356 5.60693C43.3356 5.79443 43.4254 5.93506 43.6051 6.02881C43.7887 6.12256 44.0895 6.24365 44.5075 6.39209C44.8356 6.50537 45.1207 6.63037 45.3629 6.76709C45.609 6.8999 45.7985 7.07568 45.9313 7.29443C46.0641 7.50928 46.1305 7.80029 46.1305 8.16748C46.1305 8.64404 45.9997 9.02881 45.7379 9.32178C45.4801 9.61084 45.1481 9.82178 44.7418 9.95459C44.3395 10.0835 43.9176 10.148 43.4762 10.148ZM49.4905 9.69092C49.4905 9.80811 49.4651 9.89014 49.4143 9.93701C49.3675 9.97998 49.2854 10.0015 49.1682 10.0015H47.9612C47.844 10.0015 47.76 9.97998 47.7093 9.93701C47.6624 9.89014 47.639 9.80811 47.639 9.69092V1.76318C47.639 1.66943 47.6585 1.59717 47.6975 1.54639C47.8616 1.33154 48.1018 1.09912 48.4182 0.849122C48.4729 0.810059 48.5218 0.790528 48.5647 0.790528C48.6155 0.790528 48.6643 0.810059 48.7112 0.849122C48.8792 0.978028 49.0198 1.09912 49.1331 1.2124C49.2503 1.32568 49.3499 1.43701 49.4319 1.54639C49.471 1.59717 49.4905 1.66943 49.4905 1.76318V4.60498H49.514C49.5999 4.4917 49.7112 4.37842 49.8479 4.26514C49.9847 4.14795 50.1663 4.05029 50.3929 3.97217C50.6233 3.89404 50.9163 3.85498 51.2718 3.85498C51.6311 3.85498 51.9768 3.9292 52.3089 4.07764C52.6409 4.22608 52.9124 4.47608 53.1233 4.82764C53.3343 5.1792 53.4397 5.65967 53.4397 6.26904V9.69092C53.4397 9.80811 53.4143 9.89014 53.3636 9.93701C53.3167 9.97998 53.2347 10.0015 53.1175 10.0015H51.9104C51.7932 10.0015 51.7093 9.97998 51.6585 9.93701C51.6116 9.89014 51.5882 9.80811 51.5882 9.69092V6.59131C51.5882 6.15772 51.4983 5.84326 51.3186 5.64795C51.139 5.44873 50.8948 5.34912 50.5862 5.34912C50.2815 5.34912 50.0452 5.41553 49.8772 5.54834C49.7093 5.68115 49.5804 5.84912 49.4905 6.05225V9.69092ZM55.1122 2.03272C55.1122 1.98193 55.1279 1.93701 55.1591 1.89795C55.1904 1.85889 55.2314 1.80811 55.2822 1.74561C55.3915 1.62061 55.5185 1.48975 55.663 1.35303C55.8075 1.2124 55.954 1.07764 56.1025 0.948731C56.1962 0.874512 56.2665 0.837403 56.3134 0.837403C56.3603 0.837403 56.4325 0.874512 56.5302 0.948731C56.8466 1.22217 57.1161 1.48779 57.3388 1.74561C57.3896 1.8042 57.4306 1.85498 57.4618 1.89795C57.497 1.93701 57.5146 1.98193 57.5146 2.03272C57.5146 2.0835 57.497 2.12842 57.4618 2.16748C57.4306 2.20654 57.3876 2.25928 57.3329 2.32568C57.2275 2.44678 57.1044 2.57764 56.9638 2.71826C56.8232 2.85498 56.6786 2.98584 56.5302 3.11084C56.4755 3.15772 56.4325 3.18897 56.4013 3.20459C56.37 3.21631 56.3408 3.22217 56.3134 3.22217C56.2861 3.22217 56.2568 3.21631 56.2255 3.20459C56.1982 3.18897 56.1533 3.15772 56.0908 3.11084C55.9345 2.98584 55.788 2.85498 55.6513 2.71826C55.5146 2.57764 55.3915 2.44287 55.2822 2.31397C55.2314 2.25147 55.1904 2.20264 55.1591 2.16748C55.1279 2.12842 55.1122 2.0835 55.1122 2.03272ZM57.2333 9.69092C57.2333 9.80811 57.2079 9.89014 57.1572 9.93701C57.1103 9.97998 57.0283 10.0015 56.9111 10.0015L55.704 10.0015C55.5868 10.0015 55.5029 9.97998 55.4521 9.93701C55.4052 9.89014 55.3818 9.80811 55.3818 9.69092V4.31201C55.3818 4.19483 55.4052 4.11475 55.4521 4.07178C55.5029 4.0249 55.5868 4.00147 55.704 4.00147L56.9111 4.00147C57.0283 4.00147 57.1103 4.0249 57.1572 4.07178C57.2079 4.11475 57.2333 4.19483 57.2333 4.31201V9.69092ZM62.1285 10.148C61.4683 10.148 60.8941 10.0425 60.4058 9.83154C59.9175 9.6167 59.5386 9.28467 59.2691 8.83545C58.9996 8.38623 58.8648 7.80615 58.8648 7.09522C58.8648 6.02881 59.1383 5.22217 59.6851 4.67529C60.232 4.12842 60.9586 3.85498 61.8648 3.85498C62.4547 3.85498 62.9527 3.96045 63.359 4.17139C63.7691 4.38233 64.0797 4.67334 64.2906 5.04443C64.5054 5.41553 64.6129 5.83936 64.6129 6.31592C64.6129 6.78076 64.4937 7.10498 64.2554 7.28858C64.0172 7.47217 63.6695 7.56397 63.2125 7.56397H60.6988C60.73 7.96631 60.8765 8.27295 61.1383 8.48389C61.4039 8.69483 61.7633 8.80029 62.2164 8.80029C62.5758 8.80029 62.8629 8.74756 63.0777 8.64209C63.2965 8.53272 63.4488 8.44678 63.5347 8.38428C63.609 8.32959 63.6929 8.3042 63.7867 8.30811C63.8609 8.30811 63.9664 8.32373 64.1031 8.35498C64.2437 8.38233 64.3824 8.43506 64.5191 8.51319C64.6168 8.56397 64.6656 8.63428 64.6656 8.72412C64.6656 8.7749 64.6558 8.84717 64.6363 8.94092C64.6246 8.99561 64.605 9.07569 64.5777 9.18115C64.5504 9.28272 64.5152 9.37842 64.4722 9.46826C64.4488 9.51123 64.4117 9.55225 64.3609 9.59131C64.2828 9.646 64.1558 9.71826 63.98 9.80811C63.8082 9.89795 63.5718 9.97608 63.2711 10.0425C62.9703 10.1128 62.5894 10.148 62.1285 10.148ZM60.6871 6.36279H62.5972C62.7965 6.36279 62.8961 6.271 62.8961 6.0874C62.8961 5.81006 62.8082 5.57764 62.6324 5.39014C62.4605 5.19873 62.2008 5.10303 61.8531 5.10303C61.4742 5.10303 61.1949 5.22412 61.0152 5.46631C60.8394 5.7085 60.73 6.00733 60.6871 6.36279ZM68.1135 5.11475H68.1369C68.4299 4.30225 68.9572 3.896 69.719 3.896C69.8166 3.896 69.8967 3.90186 69.9592 3.91358C70.0217 3.92139 70.0647 3.9292 70.0881 3.93701C70.1467 3.95654 70.176 4.00147 70.176 4.07178V5.48389C70.176 5.60498 70.1057 5.63818 69.9651 5.5835C69.9182 5.56397 69.8498 5.54443 69.76 5.5249C69.674 5.50147 69.5529 5.48975 69.3967 5.48975C68.9943 5.48975 68.6799 5.63818 68.4533 5.93506C68.2268 6.22803 68.1135 6.62842 68.1135 7.13623V9.69092C68.1135 9.80811 68.0881 9.89014 68.0373 9.93701C67.9904 9.97998 67.9084 10.0015 67.7912 10.0015L66.5842 10.0015C66.467 10.0015 66.383 9.97998 66.3322 9.93701C66.2854 9.89014 66.2619 9.80811 66.2619 9.69092V4.78076C66.2619 4.68701 66.2815 4.61475 66.3205 4.56397C66.4026 4.45459 66.5002 4.34326 66.6135 4.22998C66.7307 4.1167 66.8733 3.99561 67.0412 3.8667C67.0725 3.84326 67.1037 3.82764 67.135 3.81983C67.1662 3.81201 67.1936 3.80811 67.217 3.80811C67.2717 3.80811 67.3264 3.82764 67.3811 3.8667C67.7053 4.12061 67.9318 4.3374 68.0608 4.51709C68.0959 4.56397 68.1135 4.61865 68.1135 4.68115V5.11475Z" fill="#BD0D0D"/>
<path d="M0.734181 11.7358L25.8461 11.7358V12.4331L0.734181 12.4331V11.7358Z" fill="black"/>
<path d="M25.8461 11.7358L70.258 11.7358V12.4331L25.8461 12.4331V11.7358Z" fill="#BD0D0D"/>
</svg>
